<?xml version="1.0" encoding="utf-8"?>
<svg version="1.1" xmlns:xlink="http://www.w3.org/1999/xlink" width="10px" height="43px" preserveAspectRatio="xMidYMin meet" viewBox="2724 34 8 43" xmlns="http://www.w3.org/2000/svg">
  <path d="M 1307 365  L 1312 365  A 5 5 0 0 0 1317 360 L 1317 292  A 3 3 0 0 0 1320 289 A 3 3 0 0 0 1317 286 L 1317 44  A 5 5 0 0 1 1322 39 L 2723 39  A 5 5 0 0 1 2728 44 L 2728 67  A 5 5 0 0 0 2733 72 L 2736 72  " stroke-width="2" stroke-dasharray="0" stroke="rgba(217, 0, 27, 1)" fill="none" class="stroke" />
  <path d="M 2730.8928932188132 67.70710678118655  L 2735.1857864376266 72  L 2730.8928932188132 76.29289321881345  L 2732.3071067811866 77.70710678118655  L 2737.3071067811866 72.70710678118655  L 2738.0142135623732 72  L 2737.3071067811866 71.29289321881345  L 2732.3071067811866 66.29289321881345  L 2730.8928932188132 67.70710678118655  Z " fill-rule="nonzero" fill="rgba(217, 0, 27, 1)" stroke="none" class="fill" />
</svg>